<svg width="18" height="20" viewBox="0 0 18 20" fill="none" xmlns="http://www.w3.org/2000/svg">
<path fill-rule="evenodd" clip-rule="evenodd" d="M4.245 0H13.755C14.914 0 15.493 1.04308e-07 15.961 0.163C16.4021 0.319723 16.8011 0.575863 17.1273 0.911584C17.4535 1.24731 17.698 1.6536 17.842 2.099C18 2.581 18 3.177 18 4.37V18.374C18 19.232 17.015 19.688 16.392 19.118C16.2172 18.9565 15.988 18.8668 15.75 18.8668C15.512 18.8668 15.2828 18.9565 15.108 19.118L14.625 19.56C14.3188 19.8432 13.9171 20.0004 13.5 20.0004C13.0829 20.0004 12.6812 19.8432 12.375 19.56C12.0688 19.2768 11.6671 19.1196 11.25 19.1196C10.8329 19.1196 10.4312 19.2768 10.125 19.56C9.81879 19.8432 9.41707 20.0004 9 20.0004C8.58293 20.0004 8.18121 19.8432 7.875 19.56C7.56879 19.2768 7.16707 19.1196 6.75 19.1196C6.33293 19.1196 5.93121 19.2768 5.625 19.56C5.31879 19.8432 4.91707 20.0004 4.5 20.0004C4.08293 20.0004 3.68121 19.8432 3.375 19.56L2.892 19.118C2.71721 18.9565 2.48798 18.8668 2.25 18.8668C2.01202 18.8668 1.78279 18.9565 1.608 19.118C0.985 19.688 0 19.232 0 18.374V4.37C0 3.177 -1.49012e-08 2.58 0.158 2.1C0.458 1.187 1.153 0.471 2.039 0.163C2.507 1.04308e-07 3.086 0 4.245 0ZM12.06 6.5C12.1257 6.42646 12.1762 6.34071 12.2087 6.24764C12.2412 6.15457 12.2551 6.056 12.2495 5.95757C12.244 5.85914 12.2191 5.76277 12.1762 5.67397C12.1334 5.58516 12.0735 5.50566 12 5.44C11.9265 5.37434 11.8407 5.32381 11.7476 5.29129C11.6546 5.25877 11.556 5.2449 11.4576 5.25047C11.3591 5.25604 11.2628 5.28094 11.174 5.32376C11.0852 5.36657 11.0057 5.42646 10.94 5.5L7.929 8.874L7.059 7.9C6.92604 7.75307 6.74033 7.66474 6.54245 7.65429C6.34457 7.64384 6.15059 7.71213 6.0029 7.84424C5.8552 7.97635 5.76579 8.16154 5.75419 8.35935C5.74259 8.55717 5.80975 8.75154 5.941 8.9L7.369 10.5C7.43935 10.5788 7.52556 10.6419 7.62198 10.685C7.7184 10.7282 7.82286 10.7505 7.9285 10.7505C8.03415 10.7505 8.1386 10.7282 8.23502 10.685C8.33144 10.6419 8.41765 10.5788 8.488 10.5L12.06 6.5ZM4.5 12.75C4.30109 12.75 4.11032 12.829 3.96967 12.9697C3.82902 13.1103 3.75 13.3011 3.75 13.5C3.75 13.6989 3.82902 13.8897 3.96967 14.0303C4.11032 14.171 4.30109 14.25 4.5 14.25H13.5C13.6989 14.25 13.8897 14.171 14.0303 14.0303C14.171 13.8897 14.25 13.6989 14.25 13.5C14.25 13.3011 14.171 13.1103 14.0303 12.9697C13.8897 12.829 13.6989 12.75 13.5 12.75H4.5Z" fill="#302F2E"/>
</svg>
